<?xml version="1.0" encoding="UTF-8" standalone="no"?> <svg id="Layer_1" data-name="Layer 1" xmlns="http://www.w3.org/2000/svg" viewBox="0 0 64 64"><title>quality-like-value-worth-good-suggest-best</title><path d="M22,32a5,5,0,1,0-5,5A5,5,0,0,0,22,32Zm-5,3a3,3,0,1,1,3-3A3,3,0,0,1,17,35Z"/><path d="M58,18H42V8a4.77,4.77,0,0,0-4.5-5A4.77,4.77,0,0,0,33,8V20H21a1,1,0,0,0-.39.08,1.94,1.94,0,0,0-1.86.47L17,22.28l-1.8-1.73a1.89,1.89,0,0,0-1.9-.46A2,2,0,0,0,12,21.6l-.48,2.53-2.44-.3a2,2,0,0,0-1.79.78,2.05,2.05,0,0,0-.23,2l1,2.36L6,30.26a2,2,0,0,0,0,3.48L8.1,35l-1,2.33a2.05,2.05,0,0,0,.23,2,2,2,0,0,0,1.79.78l.64-.08L2.11,54.79A1,1,0,0,0,3.61,56l3.67-2.79L7.05,60a1,1,0,0,0,1.9.45L17,43,24.6,60.4a1,1,0,0,0,.92.6l.2,0a1,1,0,0,0,.8-1l0-6.72,3.82,3a1,1,0,0,0,1.52-1.22L26.5,44H54a4.24,4.24,0,0,0,4-4.43,4.72,4.72,0,0,0-.32-1.71,4.49,4.49,0,0,0,2.32-4,4.8,4.8,0,0,0-.54-2.23A4.57,4.57,0,0,0,61,28.14a4.79,4.79,0,0,0-.54-2.22A4.57,4.57,0,0,0,62,22.43,4.24,4.24,0,0,0,58,18ZM9.21,55.12l.14-3.91a1,1,0,0,0-.54-.92.92.92,0,0,0-.46-.11,1,1,0,0,0-.6.2L5.94,51.75l5.72-11L12,42.38a2,2,0,0,0,1.34,1.53,2,2,0,0,0,.54.09L14,44a2.35,2.35,0,0,0,.37,0h0ZM17.89,40h0a1.93,1.93,0,0,0-.87-.22h-.08a2,2,0,0,0-.34,0h0a1.6,1.6,0,0,0-.33.11l0,0a1.38,1.38,0,0,0-.27.14,2.09,2.09,0,0,0-.29.23h0L13.93,42l-.48-2.51a.14.14,0,0,0,0-.06,1.49,1.49,0,0,0-.09-.3h0a1.92,1.92,0,0,0-1-1h0l-.26-.1-.23,0h0a1.75,1.75,0,0,0-.51,0l-2.38.27,1-2.33a2,2,0,0,0-.81-2.56L7,32l2.14-1.26a2,2,0,0,0,.8-2.56L8.86,25.82l2.43.29a2,2,0,0,0,2.16-1.59L14,22.09l1.69,1.63a1.93,1.93,0,0,0,2.69,0L20.05,22l.49,2.5a2,2,0,0,0,2.16,1.6l2.38-.27-1,2.33a2,2,0,0,0-.16,1v.15a2,2,0,0,0,.41,1,.85.85,0,0,0,.16.17.81.81,0,0,0,.09.1,2.32,2.32,0,0,0,.3.22L27,32l-.17.1-1.95,1.15a2,2,0,0,0-.49.42l-.06.07a.1.1,0,0,0,0,.05,2.07,2.07,0,0,0-.38.93V35a.76.76,0,0,0,0,.15,2.1,2.1,0,0,0,.17.73l1,2.35-2.05-.25h0l-.32,0h0a1.61,1.61,0,0,0-.38,0,2,2,0,0,0-1.67,1.25,2.15,2.15,0,0,0-.11.36l-.34,2.13a.93.93,0,0,0-.12.29v0l-1.73-1.67A2.31,2.31,0,0,0,17.89,40ZM28.18,52l-2-1.58a1,1,0,0,0-1.05-.12,1,1,0,0,0-.57.9l0,4L19.62,43.94h.05a1.54,1.54,0,0,0,.43.06h0a2.11,2.11,0,0,0,.56-.09,2,2,0,0,0,1.25-1.24s0,0,0,0a1.82,1.82,0,0,0,.07-.25l.39-2.23ZM33,42H25.54l-.88-1.85.23,0a2,2,0,0,0,1.79-.78,2,2,0,0,0,.23-2l-1-2.36L28,33.74a2,2,0,0,0,0-3.48L25.89,29l1-2.33a2,2,0,0,0-.23-2,1.93,1.93,0,0,0-1.79-.78l-2.38.3L22.1,22H33ZM58.64,24.71a1,1,0,0,0-.59.72,1,1,0,0,0,.26.89A2.67,2.67,0,0,1,59,28.14a2.44,2.44,0,0,1-1.35,2.29,1,1,0,0,0-.6.71,1,1,0,0,0,.26.9A2.65,2.65,0,0,1,58,33.86a2.26,2.26,0,0,1-1.87,2.4,1,1,0,0,0-.71,1.63A2.64,2.64,0,0,1,56,39.57,2.25,2.25,0,0,1,54,42H35V8a2.79,2.79,0,0,1,2.5-3A2.79,2.79,0,0,1,40,8V19a1,1,0,0,0,1,1H58a2.25,2.25,0,0,1,2,2.43A2.43,2.43,0,0,1,58.64,24.71Z"/></svg>