<?xml version="1.0" encoding="UTF-8" standalone="no"?> <svg id="Layer_1" data-name="Layer 1" xmlns="http://www.w3.org/2000/svg" viewBox="0 0 64 64"><title>dynamic-static-step-plan-dynamics</title><path d="M32,3a4,4,0,1,0,4,4A4.004,4.004,0,0,0,32,3Zm0,6a2,2,0,1,1,2-2A2.0026,2.0026,0,0,1,32,9Z"/><path d="M32,15a4,4,0,1,0,4,4A4.004,4.004,0,0,0,32,15Zm0,6a2,2,0,1,1,2-2A2.0026,2.0026,0,0,1,32,21Z"/><path d="M32,27a4,4,0,1,0,4,4A4.004,4.004,0,0,0,32,27Zm0,6a2,2,0,1,1,2-2A2.0026,2.0026,0,0,1,32,33Z"/><path d="M32,39a4,4,0,1,0,4,4A4.004,4.004,0,0,0,32,39Zm0,6a2,2,0,1,1,2-2A2.0026,2.0026,0,0,1,32,45Z"/><path d="M32,51a4,4,0,1,0,4,4A4.004,4.004,0,0,0,32,51Zm0,6a2,2,0,1,1,2-2A2.0026,2.0026,0,0,1,32,57Z"/><path d="M55,6H38V8H55a5,5,0,0,1,0,10H38v2H55A7,7,0,0,0,55,6Z"/><path d="M55,30H38v2H55a5,5,0,0,1,0,10H38v2H55a7,7,0,0,0,0-14Z"/><path d="M9,56H26V54H9A5,5,0,0,1,9,44H26V42H9A7,7,0,0,0,9,56Z"/><path d="M9,32H26V30H9A5,5,0,0,1,9,20H26V18H9A7,7,0,0,0,9,32Z"/><path d="M38,56H61a.99991.99991,0,0,0,.707-1.707l-5-5L55.293,50.707,58.58594,54H38Z"/><path d="M2,8H25a1.00048,1.00048,0,0,0,.625-1.78125l-5-4-1.25,1.5625L22.14941,6H2Z"/><rect x="2" y="12" width="2" height="2"/><rect x="6" y="12" width="2" height="2"/><rect x="10" y="12" width="2" height="2"/><rect x="14" y="12" width="2" height="2"/><rect x="18" y="12" width="2" height="2"/><rect x="22" y="12" width="2" height="2"/><rect x="38" y="60" width="2" height="2"/><rect x="42" y="60" width="2" height="2"/><rect x="46" y="60" width="2" height="2"/><rect x="50" y="60" width="2" height="2"/><rect x="54" y="60" width="2" height="2"/><rect x="58" y="60" width="2" height="2"/></svg>