<?xml version="1.0" encoding="UTF-8"?>
<svg width="48" height="48" version="1.1" viewBox="0 0 48 48" xmlns="http://www.w3.org/2000/svg">
 <g transform="translate(-624.65 -438.18)">
  <path d="m633.69 444.18c-1.6703 0-3.0449 1.3748-3.0449 3.0449v20.562c0 1.6702 1.3747 3.0449 3.0449 3.0449h9.9335v1.6797c0 0.8831-0.693 1.5762-1.5762 1.5762h-1.703c-1.671 0-3.045 1.3771-3.045 3.0469 0 1.6697 1.3752 3.0449 3.045 3.0449h22.971c1.826 0 3.3301-1.2195 3.3301-3.0449v-3.7871c0-0.5523-0.4478-1-1-1-0.5524 0-1 0.4477-1 1v3.7871c0 0.7489-0.5743 1.0449-1.3301 1.0449h-10.381c-0.7558 0-1.3301-0.296-1.3301-1.0449v-20.266c0-0.749 0.5743-1.3243 1.3301-1.3243h10.381c0.7558 0 1.3301 0.5753 1.3301 1.3243v8.4785c0 0.5523 0.4476 1 1 1 0.5522 0 1-0.4477 1-1v-8.4785c0-1.8255-1.5041-3.3243-3.3301-3.3243h-10.381c-1.8261 0-3.3301 1.4988-3.3301 3.3243v6.5078h-16.959v-16.152c0-0.5892 0.4556-1.0449 1.0449-1.0449h26.828c0.5892 0 1.0451 0.4557 1.0451 1.0449v3.3203c0 0.5523 0.4476 1 1 1 0.5522 0 1-0.4477 1-1v-3.3203c0-1.6701-1.3749-3.0449-3.0451-3.0449zm-1.0449 21.197h16.959v3.455h-15.914c-0.5893 0-1.0449-0.4555-1.0449-1.0449zm12.978 5.455h3.9805v6.3028c0 0.8729 0.2949 1.0449 0.2949 1.0449h-9.5546c-0.5897 0-1.045-0.4553-1.045-1.0449 0-0.5898 0.4564-1.0469 1.045-1.0469h6.1366c0.5524 0 1-0.4477 1-1s-0.4476-1-1-1h-1.2284c0.2367-0.4766 0.371-1.0114 0.371-1.5762z" style="-inkscape-stroke:none;color:#000000;stroke-linecap:round;stroke-linejoin:round"/>
  <path d="m658.13 473.6a1.25 1.25 0 0 0-1.25 1.25 1.25 1.25 0 0 0 1.25 1.25 1.25 1.25 0 0 0 1.25-1.25 1.25 1.25 0 0 0-1.25-1.25z" style="-inkscape-stroke:none;color:#000000;stroke-linecap:round;stroke-linejoin:round"/>
  <path d="m635.89 447.89c-0.6903 0-1.25 0.5597-1.25 1.25 0 0.6904 0.5597 1.25 1.25 1.25s1.25-0.5596 1.25-1.25c0-0.6903-0.5597-1.25-1.25-1.25z" style="-inkscape-stroke:none;color:#000000;stroke-linecap:round;stroke-linejoin:round"/>
  <path d="m639.72 447.89c-0.6903 0-1.25 0.5597-1.25 1.25 0 0.6904 0.5597 1.25 1.25 1.25s1.25-0.5596 1.25-1.25c0-0.6903-0.5597-1.25-1.25-1.25z" style="-inkscape-stroke:none;color:#000000;stroke-linecap:round;stroke-linejoin:round"/>
  <path d="m643.56 447.89c-0.6904 0-1.25 0.5597-1.25 1.25 0 0.6904 0.5596 1.25 1.25 1.25 0.6902 0 1.25-0.5596 1.25-1.25 0-0.6903-0.5598-1.25-1.25-1.25z" style="-inkscape-stroke:none;color:#000000;stroke-linecap:round;stroke-linejoin:round"/>
  <path d="m665.65 468.33a1 1 0 0 0-1 1 1 1 0 0 0 1 1 1 1 0 0 0 1-1 1 1 0 0 0-1-1z" style="-inkscape-stroke:none;color:#000000;stroke-linecap:round;stroke-linejoin:round"/>
  <path d="m661.76 466.77a1 1 0 0 0-1.0703 0.9258l-0.0196 0.2656-0.5821-0.582a1 1 0 0 0-0.7088-0.293 1 1 0 0 0-0.7071 0.293 1 1 0 0 0 0 1.4141l0.5839 0.5839-0.2676 0.0196a1 1 0 0 0-0.9257 1.0683 1 1 0 0 0 1.0683 0.9258l2.4512-0.1758a1.0001 1.0001 0 0 0 0.9259-0.9258l0.1758-2.4511a1 1 0 0 0-0.9239-1.0684z" style="-inkscape-stroke:none;color:#000000;stroke-linecap:round;stroke-linejoin:round"/>
  <path d="m657.12 462.28-2.4493 0.1758a1.0001 1.0001 0 0 0-0.9257 0.9258l-0.1777 2.4512a1 1 0 0 0 0.9258 1.0683 1 1 0 0 0 1.0703-0.9258l0.0195-0.2656 0.5819 0.582a1 1 0 0 0 1.4141 0 1 1 0 0 0 0-1.414l-0.5839-0.584 0.2695-0.0195a1 1 0 0 0 0.9257-1.0684 1 1 0 0 0-1.0702-0.9258z" style="-inkscape-stroke:none;color:#000000;stroke-linecap:round;stroke-linejoin:round"/>
  <path d="m655.84 457.62a1 1 0 0 0-1 1 1 1 0 0 0 1 1h4.5783a1 1 0 0 0 1-1 1 1 0 0 0-1-1z" style="-inkscape-stroke:none;color:#000000;stroke-linecap:round;stroke-linejoin:round"/>
 </g>
</svg>
